<svg width="135" height="111" viewBox="0 0 135 111" fill="none" xmlns="http://www.w3.org/2000/svg">
<g clip-path="url(#clip0_29_15)">
<g clip-path="url(#clip1_29_15)">
<g clip-path="url(#clip2_29_15)">
<g clip-path="url(#clip3_29_15)">
<g clip-path="url(#clip4_29_15)">
<g clip-path="url(#clip5_29_15)">
<g clip-path="url(#clip6_29_15)">
<g clip-path="url(#clip7_29_15)">
<path d="M0.0534668 89.322C0.0534668 88.2886 0.249976 87.3103 0.642994 86.3871C1.03326 85.4639 1.57882 84.644 2.27965 83.9275C2.98049 83.211 3.79126 82.6488 4.71196 82.2409C5.63267 81.8358 6.62209 81.6333 7.68021 81.6333C8.72459 81.6333 9.70714 81.8358 10.6278 82.2409C11.5485 82.6488 12.3662 83.211 13.0808 83.9275C13.7953 84.644 14.3519 85.4639 14.7504 86.3871C15.1489 87.3103 15.3482 88.2886 15.3482 89.322C15.3482 90.383 15.1489 91.3751 14.7504 92.2983C14.3519 93.2215 13.7995 94.0345 13.0931 94.7372C12.3841 95.44 11.5664 95.987 10.6402 96.3783C9.71126 96.7724 8.72459 96.9695 7.68021 96.9695C6.62209 96.9695 5.63267 96.7765 4.71196 96.3907C3.79126 96.0049 2.98049 95.4634 2.27965 94.7662C1.57882 94.0717 1.03326 93.2587 0.642994 92.3273C0.249976 91.3986 0.0534668 90.3968 0.0534668 89.322ZM2.32088 89.322C2.32088 90.0937 2.46242 90.8129 2.7455 91.4798C3.02584 92.1495 3.41336 92.7351 3.90806 93.2367C4.40277 93.741 4.97718 94.1337 5.6313 94.4148C6.28266 94.6987 6.98624 94.8406 7.74205 94.8406C8.48411 94.8406 9.17807 94.6987 9.82394 94.4148C10.4698 94.1337 11.0374 93.741 11.5266 93.2367C12.013 92.7351 12.3937 92.1495 12.6685 91.4798C12.9433 90.8129 13.0808 90.0937 13.0808 89.322C13.0808 88.5504 12.9406 87.8298 12.6603 87.1601C12.3772 86.4932 11.9924 85.9048 11.5059 85.395C11.0167 84.8852 10.4465 84.4856 9.79508 84.1962C9.14097 83.9068 8.44288 83.7622 7.70082 83.7622C6.93128 83.7622 6.22357 83.9068 5.5777 84.1962C4.93183 84.4856 4.36155 84.8852 3.86684 85.395C3.37213 85.9048 2.99148 86.4973 2.72489 87.1725C2.45555 87.8477 2.32088 88.5642 2.32088 89.322ZM18.6256 81.7986H22.7276C23.5109 81.7986 24.2351 81.9061 24.9002 82.1211C25.568 82.3333 26.1383 82.6392 26.611 83.0388C27.0865 83.4384 27.4575 83.9303 27.7241 84.5145C27.9935 85.1015 28.1281 85.7808 28.1281 86.5524C28.1281 87.1449 28.0388 87.7306 27.8602 88.3093C27.6815 88.888 27.3929 89.4116 26.9944 89.8801C26.5959 90.3486 26.0737 90.7234 25.4278 91.0045C24.782 91.2883 23.9781 91.4302 23.0161 91.4302H20.8312V96.8041H18.6256V81.7986ZM20.8312 89.322H22.9749C23.5383 89.322 24.0083 89.2325 24.3848 89.0533C24.7641 88.8742 25.0596 88.6496 25.2712 88.3795C25.4856 88.1122 25.6367 87.8229 25.7247 87.5115C25.8154 87.2028 25.8607 86.9038 25.8607 86.6144C25.8607 86.3389 25.8154 86.0495 25.7247 85.7464C25.6367 85.4432 25.4856 85.1539 25.2712 84.8783C25.0596 84.6027 24.7751 84.3753 24.4178 84.1962C24.0605 84.0171 23.6208 83.9275 23.0986 83.9275H20.8312V89.322ZM22.8925 90.6655L25.5103 90.6035L29.3855 96.8041H26.8295L22.8925 90.6655ZM32.9721 96.8041H30.8078L37.3833 81.1992H37.507L44.0825 96.8041H41.5677L36.7855 84.6509L38.3727 83.5968L32.9721 96.8041ZM34.1471 93.0837L34.8067 91.1822H40.1248L40.8875 93.0837H34.1471ZM59.8677 97.3208H59.8059L48.2833 85.8497L48.9223 86.0564L48.9842 96.8041H46.758V81.3233H46.8611L58.2393 92.815L57.724 92.6704L57.6828 81.7986H59.8677V97.3208ZM75.9045 89.3634V95.4813C75.6984 95.6604 75.4098 95.8396 75.0388 96.0187C74.6677 96.1978 74.2527 96.3563 73.7938 96.4941C73.332 96.6319 72.8607 96.7462 72.3797 96.8372C71.8988 96.9254 71.4453 96.9695 71.0193 96.9695C69.81 96.9695 68.7244 96.7834 67.7625 96.4114C66.8005 96.0394 65.976 95.5226 65.2889 94.8612C64.6018 94.1998 64.0769 93.4241 63.7141 92.534C63.3486 91.6466 63.1658 90.6793 63.1658 89.6321C63.1658 88.3506 63.3719 87.2138 63.7842 86.2217C64.1964 85.2296 64.7571 84.3919 65.4662 83.7084C66.1725 83.0277 66.9902 82.511 67.9191 82.1583C68.8453 81.8083 69.8169 81.6333 70.8338 81.6333C71.727 81.6333 72.5556 81.7366 73.3197 81.9433C74.081 82.15 74.7365 82.4187 75.2861 82.7494L74.5647 84.7749C74.2898 84.6234 73.9504 84.4745 73.5464 84.3285C73.1396 84.1852 72.7233 84.0722 72.2973 83.9895C71.8713 83.9068 71.4796 83.8655 71.1223 83.8655C70.2429 83.8655 69.4568 83.9923 68.7642 84.2458C68.0689 84.5021 67.4739 84.8714 66.9792 85.3537C66.4845 85.8359 66.1038 86.4215 65.8372 87.1105C65.5679 87.7994 65.4332 88.578 65.4332 89.4461C65.4332 90.2315 65.5706 90.9507 65.8455 91.6039C66.1203 92.2597 66.5051 92.8261 66.9998 93.3028C67.4945 93.7768 68.0854 94.1406 68.7725 94.3941C69.4596 94.6504 70.2223 94.7786 71.0605 94.7786C71.5415 94.7786 72.0156 94.7303 72.4828 94.6339C72.95 94.5374 73.3485 94.3996 73.6783 94.2205V91.4923H70.7925V89.3634H75.9045ZM79.6354 96.8041V81.7986H89.4678V83.9275H81.841V88.2059H88.6226V90.3348H81.841V94.6752H89.7563V96.8041H79.6354ZM99.6876 81.7986H103.81C104.923 81.7986 105.876 81.9874 106.667 82.365C107.456 82.7453 108.061 83.2868 108.481 83.9895C108.899 84.6923 109.108 85.5466 109.108 86.5524C109.108 87.1449 109.018 87.7306 108.84 88.3093C108.661 88.888 108.377 89.4144 107.986 89.8884C107.593 90.3651 107.074 90.744 106.428 91.0251C105.782 91.309 104.999 91.4509 104.078 91.4509H101.893V96.8041H99.6876V81.7986ZM101.893 89.322H104.078C104.628 89.322 105.088 89.2283 105.459 89.0409C105.83 88.8563 106.123 88.6193 106.337 88.3299C106.549 88.0406 106.7 87.7402 106.791 87.4288C106.879 87.1201 106.923 86.8418 106.923 86.5938C106.923 86.3182 106.879 86.0247 106.791 85.7133C106.7 85.4046 106.552 85.1153 106.346 84.8452C106.139 84.5779 105.858 84.3574 105.5 84.1838C105.143 84.0129 104.697 83.9275 104.161 83.9275H101.893V89.322ZM111.293 96.8041H109.128L115.704 81.1992H115.827L122.403 96.8041H119.888L115.106 84.6509L116.693 83.5968L111.293 96.8041ZM112.468 93.0837L113.127 91.1822H118.445L119.208 93.0837H112.468ZM127.123 96.8041V91.8643L121.578 81.7986H124.299L128.607 89.9834L127.948 90.0248L132.215 81.7986H134.915L129.329 91.8643V96.8041H127.123Z" fill="#6F605B"/>
</g>
</g>
<g clip-path="url(#clip8_29_15)">
<g clip-path="url(#clip9_29_15)">
<path d="M53.4876 101.127H55.7214C56.2105 101.127 56.6531 101.2 57.0492 101.347C57.4453 101.492 57.7829 101.691 58.0621 101.943C58.3394 102.195 58.5532 102.489 58.7037 102.824C58.8523 103.162 58.9265 103.519 58.9265 103.897V108.32C58.9265 108.697 58.8523 109.055 58.7037 109.392C58.5532 109.73 58.3394 110.025 58.0621 110.277C57.7829 110.529 57.4453 110.727 57.0492 110.872C56.6531 111.017 56.2105 111.09 55.7214 111.09H53.4876C53.0004 111.09 52.5588 111.017 52.1628 110.872C51.7647 110.727 51.4271 110.529 51.1498 110.277C50.8726 110.025 50.6587 109.73 50.5082 109.392C50.3577 109.055 50.2825 108.697 50.2825 108.32V103.897C50.2825 103.519 50.3577 103.162 50.5082 102.824C50.6587 102.489 50.8726 102.195 51.1498 101.943C51.4271 101.691 51.7647 101.492 52.1628 101.347C52.5588 101.2 53.0004 101.127 53.4876 101.127ZM56.8888 106.64V105.49L56.7521 104.951L56.1729 104.698L56.7521 104.481L56.8888 103.927V102.961L56.7878 102.348L56.3303 101.883L55.5847 101.782H52.54V107.796H55.5847L56.3303 107.709L56.7878 107.251L56.8888 106.64ZM56.1224 106.56L56.0184 106.953L55.5402 107.024H53.3153V105.106H55.555L56.0481 105.163L56.1224 105.592V106.56ZM56.1224 103.87L56.0184 104.254L55.5402 104.341H53.3153V102.553H55.5402L56.0481 102.634L56.0184 103.063L56.1224 103.87ZM62.0752 101.127H64.309C64.7962 101.127 65.2378 101.2 65.6338 101.347C66.0319 101.492 66.3695 101.691 66.6468 101.943C66.924 102.195 67.1379 102.489 67.2884 102.824C67.4389 103.162 67.5141 103.519 67.5141 103.897V108.32C67.5141 108.697 67.4389 109.055 67.2884 109.392C67.1379 109.73 66.924 110.025 66.6468 110.277C66.3695 110.529 66.0319 110.727 65.6338 110.872C65.2378 111.017 64.7962 111.09 64.309 111.09H62.0752C61.5861 111.09 61.1435 111.017 60.7474 110.872C60.3514 110.727 60.0137 110.529 59.7345 110.277C59.4572 110.025 59.2434 109.73 59.0929 109.392C58.9443 109.055 58.8701 108.697 58.8701 108.32V103.897C58.8701 103.519 58.9443 103.162 59.0929 102.824C59.2434 102.489 59.4572 102.195 59.7345 101.943C60.0137 101.691 60.3514 101.492 60.7474 101.347C61.1435 101.2 61.5861 101.127 62.0752 101.127ZM64.8377 106.247L64.9744 107.796H65.8031L65.2298 102.378L64.7783 101.928L63.8159 101.782H63.0376L62.0752 101.928L61.6326 102.378L61.0385 107.796H61.9L62.0158 106.247L62.0901 105.577H64.7635L64.8377 106.247ZM63.7862 102.553L64.4664 102.661C64.5001 103.054 64.5387 103.425 64.5823 103.775C64.6259 104.124 64.6674 104.492 64.707 104.88H62.1554L62.3723 102.661C62.5069 102.647 62.6238 102.63 62.7228 102.61C62.8218 102.592 62.9396 102.573 63.0763 102.553H63.7862ZM74.2422 107.796V102.947L74.1412 102.336L73.6778 101.868L72.9382 101.782H71.1232L69.8192 101.964V107.796H70.5886V102.634L71.153 102.539H72.8936L73.3927 102.619L73.4669 103.048V107.796H74.2422ZM70.6599 101.127H72.8936C73.3828 101.127 73.8254 101.2 74.2214 101.347C74.6175 101.492 74.9542 101.691 75.2314 101.943C75.5106 102.195 75.7245 102.489 75.873 102.824C76.0235 103.162 76.0988 103.519 76.0988 103.897V108.32C76.0988 108.697 76.0235 109.055 75.873 109.392C75.7245 109.73 75.5106 110.025 75.2314 110.277C74.9542 110.529 74.6175 110.727 74.2214 110.872C73.8254 111.017 73.3828 111.09 72.8936 111.09H70.6599C70.1727 111.09 69.7301 111.017 69.3321 110.872C68.936 110.727 68.5993 110.529 68.3221 110.277C68.0429 110.025 67.829 109.73 67.6805 109.392C67.53 109.055 67.4547 108.697 67.4547 108.32V103.897C67.4547 103.519 67.53 103.162 67.6805 102.824C67.829 102.489 68.0429 102.195 68.3221 101.943C68.5993 101.691 68.936 101.492 69.3321 101.347C69.7301 101.2 70.1727 101.127 70.6599 101.127ZM83.213 107.397L80.8129 104.653L83.3081 102.181L82.7853 101.571L79.797 104.537V101.782H79.0277V107.796H79.797V105.52C79.8802 105.453 79.9515 105.391 80.0109 105.335C80.0723 105.28 80.1416 105.217 80.2188 105.148L82.5892 107.933L83.213 107.397ZM79.2445 101.127H81.4783C81.9674 101.127 82.41 101.2 82.8061 101.347C83.2021 101.492 83.5398 101.691 83.819 101.943C84.0963 102.195 84.3101 102.489 84.4606 102.824C84.6111 103.162 84.6864 103.519 84.6864 103.897V108.32C84.6864 108.697 84.6111 109.055 84.4606 109.392C84.3101 109.73 84.0963 110.025 83.819 110.277C83.5398 110.529 83.2021 110.727 82.8061 110.872C82.41 111.017 81.9674 111.09 81.4783 111.09H79.2445C78.7573 111.09 78.3157 111.017 77.9197 110.872C77.5216 110.727 77.184 110.529 76.9067 110.277C76.6295 110.025 76.4156 109.73 76.2651 109.392C76.1146 109.055 76.0394 108.697 76.0394 108.32V103.897C76.0394 103.519 76.1146 103.162 76.2651 102.824C76.4156 102.489 76.6295 102.195 76.9067 101.943C77.184 101.691 77.5216 101.492 77.9197 101.347C78.3157 101.2 78.7573 101.127 79.2445 101.127Z" fill="#F36527"/>
</g>
</g>
</g>
</g>
<g clip-path="url(#clip10_29_15)">
<g clip-path="url(#clip11_29_15)">
<path d="M30.7898 36.7937C30.7898 16.4732 47.2185 0 67.4841 0C87.7497 0 104.178 16.4732 104.178 36.7937C104.178 57.1142 87.7497 73.5875 67.4841 73.5875C47.2185 73.5875 30.7898 57.1142 30.7898 36.7937ZM67.4841 72.1337C86.949 72.1337 102.728 56.3114 102.728 36.7937C102.728 17.2761 86.949 1.45383 67.4841 1.45383C48.0192 1.45383 32.2397 17.2761 32.2397 36.7937C32.2397 56.3114 48.0192 72.1337 67.4841 72.1337Z" fill="#F36527"/>
<g clip-path="url(#clip12_29_15)">
<g clip-path="url(#clip13_29_15)">
<path d="M89.4329 35.681C88.8189 23.5299 78.4951 14.1726 66.3739 14.7882C54.2536 15.4001 44.9244 25.7491 45.5355 37.906C46.1487 50.057 56.4725 59.4121 68.5929 58.7994C80.7111 58.1838 90.041 47.8349 89.4329 35.681ZM68.5147 57.278C57.2297 57.8497 47.6207 49.1387 47.055 37.8224C46.4842 26.5112 55.1701 16.8761 66.4529 16.3089C77.7357 15.7343 87.3447 24.4438 87.9126 35.7601C88.4835 47.0676 79.7953 56.7064 68.5147 57.278Z" fill="#F36527"/>
<path d="M54.6044 22.8535C51.4111 25.8399 49.2557 29.9074 48.7053 34.441L65.5846 35.9873L54.6044 22.8535Z" fill="#F36527"/>
<path d="M86.3756 37.807C86.5496 32.2365 84.7399 28.1133 82.4558 25.1576C82.4558 25.1576 69.3253 36.2812 69.3356 36.309L86.3756 37.807Z" fill="#F36527"/>
<path d="M69.7442 17.9161L68.2451 35.1086C68.2495 35.1108 81.486 23.9953 81.486 23.9953C78.49 20.693 74.359 18.468 69.7442 17.9161Z" fill="#F36527"/>
<path d="M68.2451 17.8047C63.1435 17.6354 58.726 19.5057 55.7498 21.8722L66.7373 35.0082L68.2451 17.8047Z" fill="#F36527"/>
<path d="M69.1587 37.903L80.0519 50.9269C83.3563 47.9742 85.6155 43.884 86.2294 39.3124C86.2294 39.3124 69.177 37.873 69.1587 37.903Z" fill="#F36527"/>
<path d="M67.949 38.8045C67.9366 38.8096 67.9293 38.8096 67.9161 38.8125L66.4397 55.7016C71.6692 55.9523 75.9654 54.1098 78.8912 51.8958L67.949 38.8045Z" fill="#F36527"/>
<path d="M65.4633 37.4728L48.5789 35.9287C48.3392 41.0566 50.2271 45.3996 52.5141 48.3582L65.4633 37.4728Z" fill="#F36527"/>
<path d="M53.4883 49.5162C56.4235 52.7503 60.4449 54.9468 64.9377 55.5543L66.4192 38.6447L53.4883 49.5162Z" fill="#F36527"/>
</g>
</g>
</g>
</g>
</g>
</g>
</g>
</g>
<defs>
<clipPath id="clip0_29_15">
<rect width="135" height="111" fill="white"/>
</clipPath>
<clipPath id="clip1_29_15">
<rect width="135" height="111" fill="white" transform="translate(-0.0159912 0.0449371)"/>
</clipPath>
<clipPath id="clip2_29_15">
<rect width="134.87" height="111.09" fill="white" transform="translate(0.0491943)"/>
</clipPath>
<clipPath id="clip3_29_15">
<rect width="134.87" height="111.09" fill="white" transform="translate(0.0491943)"/>
</clipPath>
<clipPath id="clip4_29_15">
<rect width="134.87" height="29.8906" fill="white" transform="translate(0.0491943 81.1992)"/>
</clipPath>
<clipPath id="clip5_29_15">
<rect width="134.87" height="29.8906" fill="white" transform="translate(0.0491943 81.1992)"/>
</clipPath>
<clipPath id="clip6_29_15">
<rect width="134.87" height="16.1216" fill="white" transform="translate(0.0491943 81.1992)"/>
</clipPath>
<clipPath id="clip7_29_15">
<rect width="134.87" height="16.1216" fill="white" transform="translate(0.0491943 81.1992)"/>
</clipPath>
<clipPath id="clip8_29_15">
<rect width="34.4068" height="9.96313" fill="white" transform="translate(50.2806 101.127)"/>
</clipPath>
<clipPath id="clip9_29_15">
<rect width="34.4068" height="9.96313" fill="white" transform="translate(50.2806 101.127)"/>
</clipPath>
<clipPath id="clip10_29_15">
<rect width="73.3885" height="73.5874" fill="white" transform="translate(30.7898)"/>
</clipPath>
<clipPath id="clip11_29_15">
<rect width="73.3885" height="73.5874" fill="white" transform="translate(30.7898)"/>
</clipPath>
<clipPath id="clip12_29_15">
<rect width="43.9539" height="44.0684" fill="white" transform="translate(45.5071 14.7595)"/>
</clipPath>
<clipPath id="clip13_29_15">
<rect width="43.9539" height="44.0684" fill="white" transform="translate(45.5071 14.7595)"/>
</clipPath>
</defs>
</svg>
